<?xml version="1.0" encoding="utf-8"?>
<!-- Generator: Adobe Illustrator 28.1.0, SVG Export Plug-In . SVG Version: 6.00 Build 0)  -->
<svg version="1.1" id="Layer_1" xmlns="http://www.w3.org/2000/svg" xmlns:xlink="http://www.w3.org/1999/xlink" x="0px" y="0px"
	 viewBox="0 0 560 560" style="enable-background:new 0 0 560 560;" xml:space="preserve">
<style type="text/css">
	.st0{fill:none;}
</style>
<g>
	<g>
		<rect x="21.67" y="91.91" class="st0" width="370.36" height="394.51"/>
		<path d="M81.09,152.25l-0.99,3.96l-4.21,4.7l-3.47,4.95v4.7l2.48,4.46l2.48,3.47v7.18l-2.48,6.19l-3.96,4.95l-5.2,4.21l-6.44,0.5
			l-7.18-0.5l-4.21-2.72l-4.95-3.47l-4.46-5.2l-5.69-6.93l-2.48-6.68l-0.99-4.95l0.99-4.7l2.48-5.45l3.47-4.21l7.18-3.96l6.19-0.99
			l9.16-0.99l8.91-2.48l6.19-0.5l4.46,0.5L81.09,152.25z M84.06,259.69l-1.49,2.47l-5.2,2.72l-3.47,2.97l-1.49,5.94l-0.99,8.17
			l-2.72,8.17l1.73,7.18l-2.23,5.94l-0.5,8.17l-0.99,8.67v8.66l0.99,10.64l-0.99,7.92v8.67l1.49,6.68l2.23,6.44l-2.23,7.67
			l2.72,6.68v11.63l0.5,4.46l1.98,6.68l0.5,7.18l1.98,4.95v4.7l1.98,4.46l-2.48,4.46l-2.97,1.24l-1.98-1.24l-2.23-4.95l-1.49-5.69
			l-0.99-4.46l-2.48-4.95v-4.7l-3.47-7.67v-6.93l-0.99-5.2v-6.93l-1.73-6.19l-0.99-15.1L55.09,355l-0.5-9.66l0.5-6.44l-0.5-7.18
			v-6.19l-2.48-4.95l-4.21-2.47l-2.97-3.22l-2.97-9.65l-0.99-5.45v-19.8l0.99-8.66l-1.49-9.16l-0.5-5.94l-1.98-5.69l1.98-5.94
			l2.97-4.7l3.96-1.49l5.69-1.49l6.19,1.49l4.46,3.96l4.46,3.71h5.69l3.96,3.96l3.71,2.48l2.97,2.72V259.69z M56.08,143.09
			l-3.96,2.48l-4.21-0.99l1.24-4.46l3.47-1.49L56.08,143.09z"/>
		<path d="M357.86,107.2l-4.7,1.98l-3.46-0.99l-10.15-1.49l-14.11-1.73h-16.34l-19.8,1.24l-21.29,2.97l-19.06,0.5l-16.83,3.47
			l-13.62,2.48l-14.85,4.7l-11.14,2.97l-10.65,2.48l-3.47,4.21l-6.68,3.96l-8.66,4.7l-10.15,2.97l-13.62,1.98l-13.62,0.5
			l-12.13-3.96l-7.18-4.7l-7.18-4.95l-6.44-5.69l-0.99-6.93l0.99-8.17l4.46-6.19l4.21-3.96l6.44-1.98l10.15-5.2l9.65-2.48
			l15.35-1.49h16.59l21.29,1.49h21.29l22.78-1.49l18.81-0.5l8.17-1.49l10.65,0.99l11.63-1.98l12.63,2.48l11.64-0.5l10.65,0.99
			l20.3,2.48h9.66l16.34,8.17l2.48,4.46V107.2z M165.26,53.48l-3.22,3.96l-3.96-3.96l2.48-5.2l4.7,1.49V53.48z M227.64,148.29
			l-2.72,4.46l-1.98,10.15v9.16l-1.49,11.64v10.15l-0.99,8.17l-1.98,6.93l1.98,5.69l-3.46,6.44l-0.74,8.66v7.67l-1.98,9.65
			l-0.99,11.14l-0.99,8.67l0.99,10.15l-1.98,11.64l-0.5,11.14v9.16l0.5,11.63l0.99,12.63l-0.99,12.13v13.12l-1.49,11.39l0.99,10.65
			v11.63l0.5,10.64l-0.5,10.65l-3.47,3.47l-0.99-2.48l-1.24-4.7l1.24-7.92l0.5-9.65l-2.23-5.69l0.5-9.66l-1.49-5.45l-1.49-7.67
			v-25.25l-1.98-8.17v-9.16l-0.99-9.66V299.8l-0.99-9.65v-10.15l0.99-10.15v-13.62l-0.99-13.86v-21.78l-0.5-7.92l1.98-7.67v-9.65
			l-0.5-12.13l-4.21-11.64l-2.48-10.65l-3.96-8.17l-0.99-8.17v-6.93l3.47-5.69l6.19-6.19l7.92-0.99l6.19,2.23l7.18,5.94l5.45,6.68
			L227.64,148.29z"/>
	</g>
	<g>
		<rect x="77.79" y="337.38" class="st0" width="460.53" height="159"/>
		<path d="M181.85,450.6c1.59,3.54,2.96,6.87,4.12,9.97c-1.45,1.45-3.36,2.77-5.75,3.96c-2.38,1.2-5.17,2.26-8.35,3.2
			c-0.87,0.22-1.9,0.51-3.09,0.87c-1.19,0.36-2.55,0.72-4.06,1.09c-2.1,0.15-4.61,0.36-7.53,0.65c-2.93,0.29-6.38,0.69-10.35,1.19
			c-5.64,4.42-10.64,7.89-15.01,10.43c-4.37,2.53-8.04,4.16-11,4.89l-1.63,1.41c-2.46,1.08-5.44,1.97-8.94,2.66
			c-3.51,0.69-7.64,1.28-12.41,1.79c-0.87-0.22-1.75-0.74-2.66-1.57c-0.9-0.83-1.93-2-3.09-3.52c0.72-0.8,1.63-1.84,2.71-3.11
			c1.08-1.27,2.28-2.78,3.58-4.52c1.08-1.6,2.37-2.88,3.85-3.86c1.48-0.98,3.38-1.68,5.69-2.12c2.38-0.5,5.02-1.23,7.91-2.17
			c0.72-0.58,1.61-1.17,2.66-1.79c1.05-0.61,2.22-1.36,3.52-2.22c1.66-0.79,3.4-1.91,5.2-3.36c1.81-1.44,3.79-3.21,5.96-5.31
			c2.89-2.82,5.2-5.08,6.94-6.78c1.73-1.7,2.78-2.76,3.14-3.2c0.58-1.01,1.19-1.93,1.84-2.76c0.65-0.83,1.44-1.61,2.38-2.33
			c1.01-1.73,2.28-3.92,3.79-6.56c1.52-2.64,3.32-5.69,5.42-9.16c0.36-0.36,0.81-0.88,1.35-1.57c0.54-0.69,1.17-1.43,1.9-2.22
			c1.44-1.66,2.49-4.19,3.14-7.59c0.65-3.4,0.98-7.51,0.98-12.36c0-3.32-0.85-6.79-2.55-10.41c-1.7-3.61-4.32-7.44-7.85-11.49
			c-2.96-3.32-6.1-6.3-9.42-8.94c-3.32-2.64-6.68-4.79-10.07-6.45c-2.6-1.3-5.04-2.58-7.31-3.85c-2.27-1.26-4.35-2.4-6.23-3.41
			c-1.01,3.61-2.29,8.6-3.85,14.96c-1.55,6.36-3.3,14.09-5.25,23.2c-2.17,10.26-3.79,18.54-4.88,24.82s-1.62,10.51-1.62,12.68
			c-0.43,1.81-0.79,3.61-1.08,5.42l-4.33,21.35c-2.53,4.92-4.69,8.56-6.5,10.95s-3.21,3.58-4.22,3.58c-0.51,0-0.99-0.42-1.43-1.25
			c-0.44-0.83-0.88-2.15-1.32-3.96l1.32-6.18c-0.22-0.43-0.44-1.05-0.66-1.84c0.44-4.7,0.84-9.45,1.21-14.26s0.77-9.6,1.2-14.37
			c0.36-5.35,0.9-10.37,1.63-15.07c0.72-4.7,1.52-9.04,2.38-13.01l-1.3-5.53c0.5-1.37,0.96-3.07,1.35-5.1
			c0.4-2.02,0.74-4.34,1.03-6.94c0.29-3.33,0.54-6.02,0.76-8.08s0.47-3.49,0.76-4.28c0.29-0.94,0.6-2.13,0.92-3.58
			c0.33-1.44,0.7-3.18,1.14-5.21c0.22-0.79,1.48-2.33,3.79-4.61c2.31-2.28,3.79-3.99,4.44-5.15c1.52-0.22,2.64-0.52,3.36-0.92
			c0.72-0.4,1.08-0.92,1.08-1.57c0-0.5-0.42-0.94-1.25-1.3c-0.83-0.36-2.08-0.65-3.74-0.87c-0.8,0-1.72-0.09-2.76-0.27
			c-1.05-0.18-2.11-0.49-3.2-0.92l-8.89-4.34c-1.89-0.87-3.32-1.73-4.31-2.6c-0.99-0.87-1.48-1.77-1.48-2.71
			c0.44-1.44,0.8-2.89,1.1-4.34c-0.51-1.44-0.93-2.64-1.26-3.58c-0.33-0.94-0.49-1.66-0.49-2.17c0-0.65,0.16-1.16,0.49-1.52
			c0.33-0.36,0.78-0.54,1.35-0.54c2.02,0.36,3.79,0.69,5.31,0.98c0.72-0.22,1.44-0.45,2.17-0.71c0.72-0.25,1.44-0.52,2.17-0.81
			c1.73,0,3.29,0.13,4.66,0.38c1.37,0.25,2.42,0.53,3.14,0.81c1.01,0.51,2.06,1.05,3.14,1.63c1.08,0.58,2.13,1.08,3.14,1.52
			c0.87-0.14,2.02-0.33,3.47-0.54c0.43,0,0.83,0.07,1.19,0.22c0.87,0.58,1.91,1.1,3.14,1.57c1.23,0.47,2.64,0.89,4.23,1.25
			c1.73,0.29,3.21,0.6,4.44,0.92c1.23,0.33,2.2,0.67,2.93,1.03c7.66,3.98,14.36,7.72,20.11,11.23c5.75,3.51,10.5,6.92,14.25,10.25
			c5.92,5.13,10.3,10.63,13.12,16.49c2.82,5.86,4.23,11.97,4.23,18.33c0,10.12-3,20.86-9,32.22c-6,11.35-14.92,23.29-26.77,35.8
			c1.01-0.43,2.35-0.9,4.01-1.41c1.66-0.51,3.58-1.12,5.75-1.85c4.55-1.01,9.25-2.1,14.09-3.26c3.04-0.87,5.6-1.81,7.7-2.83
			C178.86,453.17,180.55,451.98,181.85,450.6z"/>
		<path d="M181.2,450.71c0.51-0.5,1.03-1.17,1.57-2.01c0.54-0.83,1.18-1.75,1.9-2.76l8.35-5.75c1.01-1.23,2.56-2.8,4.66-4.72
			c2.1-1.91,4.7-4.24,7.8-6.99c0.36-0.79,0.96-1.72,1.79-2.76c0.83-1.05,1.82-2.08,2.98-3.09c1.01-0.94,2.02-1.82,3.04-2.66
			c1.01-0.83,1.95-1.64,2.82-2.44c1.08-1.08,2.11-2.17,3.09-3.25s1.97-2.13,2.98-3.14c1.16-1.01,2.35-1.81,3.58-2.38
			c1.23-0.58,2.56-0.87,4.01-0.87c1.59,0,2.8,0.2,3.63,0.6c0.83,0.4,1.28,0.96,1.36,1.68c-0.72,1.66-1.48,3.33-2.28,4.99l0.65,0.98
			c3.18-1.23,5.67-2.13,7.48-2.71c1.81-0.58,2.96-0.87,3.47-0.87c5.28,0,9.23,1.61,11.87,4.82c2.64,3.22,3.96,8.08,3.96,14.58
			c0,1.23-0.14,2.67-0.43,4.34c-0.29,1.66-0.76,3.47-1.41,5.42c-0.72,2.17-1.5,3.98-2.33,5.42c-0.83,1.45-1.61,2.49-2.33,3.14
			c0.29,0.94,0.61,1.61,0.98,2.01c0.36,0.4,0.83,0.6,1.41,0.6s1.17-0.18,1.79-0.54c0.61-0.36,1.36-0.9,2.22-1.63
			c0.72,1.59,1.43,3.24,2.11,4.93c0.69,1.7,1.39,3.38,2.11,5.04c-1.3,1.16-2.57,2.28-3.79,3.36c-1.23,1.08-2.53,2.13-3.9,3.14
			c-1.66,1.37-3.24,2.37-4.72,2.98c-1.48,0.62-2.95,0.92-4.39,0.92c-1.66,0-3.04-0.4-4.12-1.19c-1.08-0.79-1.95-1.91-2.6-3.36
			c-1.81,2.38-3.99,4.57-6.56,6.56c-2.57,1.99-5.4,3.63-8.51,4.93c-1.81,0.87-3.45,1.54-4.93,2.01c-1.48,0.47-2.84,0.7-4.06,0.7
			c-0.36,0-1.07,0.15-2.11,0.43c-1.05,0.29-1.9,0.43-2.55,0.43c-4.12,0-7.84-1.73-11.17-5.2c-3.32-3.47-4.99-7.33-4.99-11.6
			c0-1.73,0.4-4.03,1.19-6.88c0.79-2.85,1.19-4.53,1.19-5.04c0-0.5-0.16-0.92-0.49-1.25c-0.33-0.33-0.78-0.49-1.35-0.49
			c-0.36,0-1.23,0.54-2.6,1.63c-1.37,1.08-3.32,2.64-5.85,4.66c-0.22,0.29-0.47,0.72-0.76,1.3c-0.29,0.58-0.76,1.23-1.41,1.95
			c-0.58-1.66-1.23-3.34-1.95-5.04C182.87,453.94,182.07,452.3,181.2,450.71z M233.34,430.87c-0.36,0.07-0.89,0.45-1.57,1.14
			c-0.69,0.69-1.36,1.54-2.01,2.55c-1.01,1.66-2.17,3.47-3.47,5.42c-0.79,0.87-1.64,1.54-2.55,2c-0.9,0.47-1.93,0.81-3.09,1.03
			c-0.72,0.07-1.48,0.78-2.28,2.11c-0.8,1.34-1.59,3.27-2.38,5.8c-0.8,2.24-1.37,4.16-1.73,5.75c-0.36,1.59-0.54,2.93-0.54,4.01
			c0,2.02,0.5,3.54,1.52,4.55c1.01,1.01,2.56,1.52,4.66,1.52c3.32,0,6.38-0.92,9.16-2.76c2.78-1.84,5.4-4.61,7.86-8.29
			c1.16-1.37,2.24-2.67,3.25-3.9c0.58-0.43,1.05-1.14,1.41-2.11c0.36-0.98,0.72-2.19,1.08-3.63l1.95-6.18
			c-0.65-2.17-1.27-3.88-1.84-5.15c-0.58-1.26-1.16-2.04-1.73-2.33c-0.36-0.22-1.16-0.45-2.38-0.7
			C237.43,431.43,235.66,431.16,233.34,430.87z"/>
		<path d="M259.58,450.71c0.29-0.22,0.58-0.52,0.87-0.92c0.29-0.4,0.62-1.03,0.98-1.9c0.43-0.72,1.05-1.5,1.84-2.33
			c0.79-0.83,1.73-1.75,2.82-2.76c2.02-1.66,3.85-3.74,5.47-6.23c1.62-2.49,3.23-5.37,4.82-8.62c2.09-4.55,4.01-8.42,5.75-11.6
			c1.73-3.18,3.32-5.6,4.77-7.26c0.43-1.66,1.3-4.3,2.6-7.91c1.3-3.61,3.04-8.31,5.2-14.09c2.09-5.49,3.87-9.95,5.31-13.39
			c1.44-3.43,2.53-5.8,3.25-7.1c0.29-0.5,0.67-1.16,1.14-1.95c0.47-0.79,0.85-1.77,1.14-2.93c1.01-3.4,2.2-6.56,3.58-9.49
			c1.37-2.93,2.78-5.69,4.23-8.29c0.36-0.65,0.81-1.16,1.36-1.52c0.54-0.36,1.1-0.54,1.68-0.54c2.89,0,5.04,1.12,6.45,3.36
			c1.41,2.24,2.11,5.53,2.11,9.86c0,4.84-1.55,11.54-4.66,20.11c-3.11,8.56-7.88,18.95-14.31,31.17c-1.3,2.75-2.71,6.11-4.23,10.08
			c-1.52,3.98-3.04,8.53-4.55,13.66c-1.23,3.98-2.42,8.02-3.58,12.14c-1.16,4.12-2.35,8.17-3.58,12.14
			c-1.16,3.83-2.02,6.85-2.6,9.05c-0.58,2.21-0.87,3.67-0.87,4.39c0,0.51,0.09,0.87,0.27,1.08c0.18,0.22,0.45,0.33,0.81,0.33
			c0.72,0,1.35-0.22,1.9-0.65c0.54-0.43,0.96-1.05,1.25-1.84c1.44-2.09,2.87-4.46,4.28-7.1c1.41-2.64,2.84-5.55,4.28-8.73l0.33-3.14
			c0.5-4.77,1.59-8.09,3.25-9.97c1.66-1.88,4.77-3.36,9.32-4.44c0.58-0.22,2.04-2.17,4.39-5.85c2.35-3.69,5.47-9.14,9.38-16.37
			c2.17-3.83,3.97-6.7,5.42-8.62c1.44-1.91,2.53-2.87,3.25-2.87c1.66,0,2.85,0.54,3.58,1.63c0.72,1.08,1.08,2.71,1.08,4.88
			c0,5.57-3.11,12.57-9.32,21.03c-6.22,8.46-9.32,14.02-9.32,16.69c0,1.88,1.66,4.75,4.99,8.62c3.32,3.87,6.07,5.8,8.24,5.8
			c0.72,0,1.53-0.23,2.44-0.71c0.9-0.47,1.97-1.21,3.2-2.22c0.94-0.72,1.86-1.5,2.76-2.33c0.9-0.83,1.9-1.61,2.98-2.33l4.34,9.97
			c-1.88,1.66-3.67,3.33-5.37,4.99c-1.7,1.66-3.49,3.29-5.37,4.88c-2.1,2.02-4.19,3.52-6.29,4.5c-2.1,0.97-4.19,1.46-6.29,1.46
			c-2.17,0-5.84-2.22-11-6.67c-5.17-4.45-7.93-6.67-8.29-6.67c-2.67,2.46-5.02,4.92-7.05,7.37c-1.3,1.59-2.58,3.13-3.85,4.61
			c-1.26,1.48-2.55,3.02-3.85,4.61c-0.36,0.51-0.94,1.12-1.73,1.84c-0.8,0.72-1.7,1.55-2.71,2.49c-1.01,1.44-2.15,2.83-3.42,4.17
			c-1.26,1.34-2.84,2-4.71,2c-2.89,0-5.06-0.83-6.5-2.49c-1.45-1.66-2.17-4.19-2.17-7.59c0-3.47,0.31-7.15,0.92-11.06
			c0.61-3.9,1.57-7.98,2.87-12.25c0.5-2.02,0.9-3.81,1.19-5.37c0.29-1.55,0.43-2.91,0.43-4.06l-0.76-1.08
			c-0.94,1.16-2.13,2.53-3.58,4.12c-1.45,1.59-3.14,3.54-5.09,5.85c-0.29,0.22-0.6,0.6-0.92,1.14c-0.33,0.54-1.07,1.61-2.22,3.2
			c-0.36-0.94-0.81-2.06-1.36-3.36c-0.54-1.3-1.1-2.82-1.68-4.55c-0.14-0.43-0.33-0.83-0.54-1.19
			C260.12,451.21,259.87,450.92,259.58,450.71z"/>
		<path d="M348.57,445.94l9.86-6.5c0.36-0.36,0.79-0.85,1.3-1.46c0.5-0.61,1.08-1.5,1.73-2.66c0.5-0.94,1.17-1.73,2-2.38
			c0.83-0.65,1.79-1.23,2.87-1.73c0.58-0.72,1.41-1.63,2.49-2.71s2.46-2.35,4.12-3.79c0.79-0.43,1.81-1.07,3.04-1.9
			c1.23-0.83,2.56-1.93,4.01-3.31c6.58-6.21,12.34-10.88,17.29-13.98c4.95-3.11,9.12-4.66,12.52-4.66c1.88,0,3.27,0.4,4.17,1.19
			c0.9,0.8,1.36,1.92,1.36,3.36c0,1.52-0.27,2.86-0.81,4.01c-0.54,1.16-1.39,2.13-2.55,2.93c-1.81,1.3-3.76,2.75-5.85,4.34
			c-1.16,1.52-2.57,3.13-4.23,4.82c-1.66,1.7-3.61,3.38-5.85,5.04c-0.72,0.94-1.34,1.77-1.84,2.49c-0.36,0.36-1.05,1.01-2.06,1.95
			c-1.01,0.94-2.35,2.02-4.01,3.25c-0.72,1.59-2.29,3.65-4.72,6.18c-2.42,2.53-5.66,5.57-9.7,9.11c-0.51,0.51-1.41,1.66-2.71,3.47
			c-1.3,1.81-3,4.19-5.09,7.15l0.76,0.98c1.59-0.5,3.25-1.37,4.99-2.6c1.73-1.23,3.65-2.85,5.75-4.88c2.46-2.24,4.46-4.07,6.02-5.47
			c1.55-1.41,2.66-2.33,3.31-2.76c0.5-0.29,1.01-0.58,1.52-0.87c0.5-0.29,1.08-0.65,1.73-1.08c3.32-3.97,6.43-6.92,9.32-8.83
			c2.89-1.91,5.56-2.87,8.02-2.87c1.52,0,2.67,0.6,3.47,1.79c0.79,1.19,1.26,2.98,1.41,5.37c-0.15,3.61-0.22,7.08-0.22,10.41
			c-0.07,2.31,0.56,4.39,1.9,6.23c1.34,1.84,3.09,2.76,5.26,2.76c0.65,0,1.28-0.18,1.9-0.54c0.61-0.36,1.25-0.83,1.9-1.41
			c0.5-0.65,0.99-1.26,1.46-1.84c0.47-0.58,0.96-1.16,1.46-1.73c0.29-0.14,0.7-0.4,1.25-0.76c0.54-0.36,1.06-0.79,1.57-1.3
			c1.01,2.17,1.86,4.06,2.55,5.69c0.69,1.62,1.21,3.05,1.57,4.28c-1.66,1.52-3.31,3.09-4.93,4.71c-1.62,1.63-3.34,3.16-5.15,4.61
			c-2.17,1.66-4.26,2.91-6.29,3.74c-2.02,0.83-4.05,1.25-6.07,1.25c-4.7,0-8.31-1.34-10.84-4.01c-2.53-2.67-4.01-6.72-4.44-12.14
			c0-0.65-0.09-1.32-0.27-2c-0.18-0.69-0.56-1.39-1.14-2.11c-0.36,0.36-0.76,0.74-1.19,1.14c-0.43,0.4-0.94,0.92-1.52,1.57
			c-0.94,0.72-2.11,1.63-3.52,2.71c-1.41,1.08-3.05,2.38-4.93,3.9c-2.53,2.6-4.66,4.73-6.4,6.4c-1.73,1.66-2.96,2.86-3.69,3.58
			c-1.45,1.23-3.13,2.46-5.04,3.69c-1.92,1.23-4.06,2.49-6.45,3.79c-1.52,0.8-2.82,1.43-3.9,1.9c-1.08,0.47-1.88,0.71-2.38,0.71
			c-3.47,0-6.03-0.85-7.7-2.55c-1.66-1.7-2.49-4.32-2.49-7.86c0-1.95,0.42-3.81,1.25-5.58c0.83-1.77,2.08-3.49,3.74-5.15
			c0.14-0.94,0.22-1.7,0.22-2.28c0-0.36-0.09-0.74-0.27-1.14c-0.18-0.4-0.41-0.85-0.7-1.35c-0.43-1.01-0.92-2.15-1.46-3.42
			c-0.54-1.26-1.14-2.62-1.79-4.06c0.29-0.29,0.7-0.85,1.25-1.68C347.22,448.2,347.85,447.17,348.57,445.94z"/>
		<path d="M428.46,450.71c0.29-0.5,0.67-1.07,1.14-1.68c0.47-0.61,1.03-1.36,1.68-2.22c0.72-0.58,1.66-1.41,2.82-2.49
			c1.16-1.08,2.46-2.35,3.9-3.79c1.3-1.44,2.89-3.23,4.77-5.37c1.88-2.13,4.15-4.72,6.83-7.75c1.16-1.23,2.6-2.8,4.34-4.72
			c1.73-1.91,3.79-4.21,6.18-6.88c2.02-2.38,4.19-4.15,6.5-5.31c2.31-1.16,4.77-1.73,7.37-1.73s4.52,0.81,5.75,2.44
			c1.23,1.63,1.84,3.99,1.84,7.1c0,1.66-0.62,4.84-1.84,9.54c-1.23,4.7-3.14,10.91-5.75,18.64c-0.65,1.45-1.27,2.82-1.84,4.12
			c-0.43,0.94-0.72,1.77-0.87,2.49c-0.15,0.72-0.22,1.27-0.22,1.63c0,0.43,0.25,0.98,0.76,1.63c0.36-0.22,0.71-0.5,1.03-0.87
			c0.33-0.36,0.71-0.79,1.14-1.3c0.58-1.08,1.46-2.22,2.66-3.41c1.19-1.19,2.62-2.51,4.28-3.96c0.65-1.23,1.5-2.44,2.55-3.63
			c1.05-1.19,2.22-2.29,3.52-3.31c0.29-0.29,0.67-0.76,1.14-1.41c0.47-0.65,1.03-1.34,1.68-2.06c0.94-0.94,2.06-1.91,3.36-2.93
			c1.3-1.01,2.82-2.06,4.55-3.14c1.95-1.01,3.7-1.81,5.26-2.38c1.55-0.58,2.91-0.87,4.07-0.87c2.24,0,4.23,0.54,5.96,1.63
			s3.21,2.78,4.44,5.09c1.44,4.48,2.82,8.64,4.12,12.47c0.79,2.24,1.68,3.9,2.66,4.99c0.98,1.08,2.08,1.63,3.31,1.63
			c0.94,0,1.79-0.18,2.55-0.54c0.76-0.36,1.46-0.9,2.11-1.63l4.34,9.97c-1.23,1.01-2.49,2.06-3.79,3.14s-2.57,2.13-3.79,3.14
			c-1.66,1.52-3.22,2.58-4.66,3.2c-1.45,0.62-2.89,0.92-4.34,0.92c-1.66,0-3.25-0.36-4.77-1.08c-1.52-0.72-2.82-1.81-3.9-3.25
			c-0.58-0.58-1.3-1.64-2.17-3.2c-0.87-1.55-1.88-3.49-3.04-5.8c-0.94-0.94-2.01-2.18-3.2-3.74c-1.19-1.55-2.58-3.38-4.17-5.47
			l-0.98-0.33c-1.37,0.43-2.73,1.08-4.06,1.95s-2.76,1.99-4.28,3.36c-3.25,2.89-5.6,4.7-7.04,5.42c-1.44,0.72-2.42,1.55-2.92,2.49
			c-1.01,1.73-2.74,3.98-5.2,6.72c-2.45,2.75-5.52,6-9.2,9.76c-0.94,0.94-1.88,1.86-2.82,2.76c-0.94,0.9-1.88,1.79-2.81,2.66
			c-0.94,0.79-2,1.35-3.19,1.68c-1.19,0.32-2.51,0.49-3.95,0.49c-2.89,0-4.46-0.99-4.71-2.98c-0.25-1.99-0.49-3.99-0.71-6.02
			c1.08-3.04,2.31-6.83,3.68-11.38s2.95-9.86,4.74-15.93c0-0.36,0.12-0.85,0.38-1.46c0.25-0.61,0.55-1.43,0.91-2.44
			c0.36-0.94,0.61-1.75,0.75-2.44c0.14-0.69,0.21-1.28,0.21-1.79c0-0.5-0.18-0.9-0.54-1.19c-0.36-0.29-0.94-0.43-1.73-0.43
			c-0.72,0-1.68,0.43-2.87,1.3c-1.19,0.87-2.62,2.24-4.28,4.12c-2.02,2.17-3.65,3.87-4.88,5.09c-1.23,1.23-2.06,1.95-2.49,2.17
			c-0.72,0.51-1.57,1.23-2.55,2.17c-0.97,0.94-2.08,1.99-3.31,3.14c-0.15,0.29-0.36,0.72-0.65,1.3c-0.29,0.58-0.76,1.23-1.41,1.95
			c-0.29-1.08-0.79-2.42-1.52-4.01C430.56,455.08,429.62,453.09,428.46,450.71z"/>
	</g>
</g>
<g>
</g>
<g>
</g>
<g>
</g>
<g>
</g>
<g>
</g>
</svg>
