<?xml version="1.0" encoding="utf-8"?>
<!-- Generator: Adobe Illustrator 28.1.0, SVG Export Plug-In . SVG Version: 6.00 Build 0)  -->
<svg version="1.1" id="Layer_1" xmlns="http://www.w3.org/2000/svg" xmlns:xlink="http://www.w3.org/1999/xlink" x="0px" y="0px"
	 viewBox="0 0 560 560" style="enable-background:new 0 0 560 560;" xml:space="preserve">
<style type="text/css">
	.st0{fill:none;}
</style>
<g>
	<rect x="203.75" y="193.71" class="st0" width="152.49" height="172.59"/>
	<path d="M230.71,221.08l-0.45,1.8l-1.91,2.13l-1.57,2.25v2.13l1.12,2.02l1.12,1.57v3.26l-1.12,2.81l-1.8,2.25l-2.36,1.91
		l-2.92,0.22l-3.26-0.22l-1.91-1.24l-2.25-1.57l-2.02-2.36l-2.58-3.14l-1.12-3.03l-0.45-2.25l0.45-2.13l1.12-2.47l1.57-1.91
		l3.26-1.8l2.81-0.45l4.16-0.45l4.04-1.12l2.81-0.22l2.02,0.22L230.71,221.08z M232.05,269.82l-0.67,1.12l-2.36,1.24l-1.57,1.35
		l-0.67,2.7l-0.45,3.71l-1.24,3.71l0.79,3.26l-1.01,2.7l-0.22,3.71l-0.45,3.93v3.93l0.45,4.83l-0.45,3.59v3.93l0.67,3.03l1.01,2.92
		l-1.01,3.48l1.24,3.03v5.28l0.22,2.02l0.9,3.03l0.22,3.26l0.9,2.25v2.13l0.9,2.02l-1.12,2.02l-1.35,0.56l-0.9-0.56l-1.01-2.25
		l-0.67-2.58l-0.45-2.02l-1.12-2.25v-2.13l-1.57-3.48v-3.14l-0.45-2.36v-3.14l-0.79-2.81l-0.45-6.85l-0.45-1.91l-0.22-4.38
		l0.22-2.92l-0.22-3.26v-2.81l-1.12-2.25l-1.91-1.12l-1.35-1.46l-1.35-4.38l-0.45-2.47v-8.98l0.45-3.93l-0.67-4.16l-0.22-2.7
		l-0.9-2.58l0.9-2.7l1.35-2.13l1.8-0.67l2.58-0.67l2.81,0.67l2.02,1.8l2.02,1.68h2.58l1.8,1.8l1.68,1.12l1.35,1.24V269.82z
		 M219.36,216.92l-1.8,1.12l-1.91-0.45l0.56-2.02l1.57-0.67L219.36,216.92z"/>
	<path d="M356.26,200.64l-2.13,0.9l-1.57-0.45l-4.6-0.67l-6.4-0.79h-7.41l-8.98,0.56l-9.66,1.35l-8.65,0.22l-7.64,1.57l-6.18,1.12
		l-6.74,2.13l-5.05,1.35l-4.83,1.12l-1.57,1.91l-3.03,1.8l-3.93,2.13l-4.6,1.35l-6.18,0.9l-6.18,0.22l-5.5-1.8l-3.26-2.13
		l-3.26-2.25l-2.92-2.58l-0.45-3.14l0.45-3.71l2.02-2.81l1.91-1.8l2.92-0.9l4.6-2.36l4.38-1.12l6.96-0.67h7.52l9.66,0.67h9.66
		l10.33-0.67l8.54-0.22l3.71-0.67l4.83,0.45l5.28-0.9l5.73,1.12l5.28-0.22l4.83,0.45l9.21,1.12h4.38l7.41,3.71l1.12,2.02V200.64z
		 M268.89,176.27l-1.46,1.8l-1.8-1.8l1.12-2.36l2.13,0.67V176.27z M297.19,219.28l-1.24,2.02l-0.9,4.6v4.16l-0.67,5.28v4.6
		l-0.45,3.71l-0.9,3.14l0.9,2.58l-1.57,2.92l-0.34,3.93v3.48l-0.9,4.38l-0.45,5.05l-0.45,3.93l0.45,4.6l-0.9,5.28l-0.22,5.05v4.16
		l0.22,5.28l0.45,5.73l-0.45,5.5v5.95l-0.67,5.17l0.45,4.83v5.28l0.22,4.83l-0.22,4.83l-1.57,1.57l-0.45-1.12l-0.56-2.13l0.56-3.59
		l0.22-4.38l-1.01-2.58l0.22-4.38l-0.67-2.47l-0.67-3.48v-11.46l-0.9-3.71v-4.16l-0.45-4.38v-5.28l-0.45-4.38v-4.6l0.45-4.6v-6.18
		l-0.45-6.29v-9.88l-0.22-3.59l0.9-3.48v-4.38l-0.22-5.5l-1.91-5.28l-1.12-4.83l-1.8-3.71L279,217.6v-3.14l1.57-2.58l2.81-2.81
		l3.59-0.45l2.81,1.01l3.26,2.7l2.47,3.03L297.19,219.28z"/>
</g>
<g>
	<rect x="230.03" y="320.25" class="st0" width="163.46" height="56.49"/>
	<path d="M263.78,356.97c0.52,1.15,0.96,2.23,1.34,3.23c-0.47,0.47-1.09,0.9-1.86,1.29s-1.68,0.73-2.71,1.04
		c-0.28,0.07-0.62,0.17-1,0.28c-0.39,0.12-0.83,0.23-1.32,0.35c-0.68,0.05-1.49,0.12-2.44,0.21s-2.07,0.22-3.36,0.39
		c-1.83,1.43-3.45,2.56-4.87,3.38c-1.42,0.82-2.61,1.35-3.57,1.58l-0.53,0.46c-0.8,0.35-1.76,0.64-2.9,0.86
		c-1.14,0.22-2.48,0.42-4.03,0.58c-0.28-0.07-0.57-0.24-0.86-0.51c-0.29-0.27-0.63-0.65-1-1.14c0.23-0.26,0.53-0.6,0.88-1.01
		c0.35-0.41,0.74-0.9,1.16-1.47c0.35-0.52,0.77-0.94,1.25-1.25c0.48-0.32,1.1-0.55,1.85-0.69c0.77-0.16,1.63-0.4,2.57-0.7
		c0.23-0.19,0.52-0.38,0.86-0.58c0.34-0.2,0.72-0.44,1.14-0.72c0.54-0.26,1.1-0.62,1.69-1.09c0.59-0.47,1.23-1.04,1.93-1.72
		c0.94-0.91,1.69-1.65,2.25-2.2s0.9-0.9,1.02-1.04c0.19-0.33,0.39-0.63,0.6-0.9s0.47-0.52,0.77-0.76c0.33-0.56,0.74-1.27,1.23-2.13
		s1.08-1.85,1.76-2.97c0.12-0.12,0.26-0.29,0.44-0.51s0.38-0.46,0.62-0.72c0.47-0.54,0.81-1.36,1.02-2.46s0.32-2.44,0.32-4.01
		c0-1.08-0.28-2.2-0.83-3.38s-1.4-2.41-2.55-3.73c-0.96-1.08-1.98-2.04-3.06-2.9s-2.17-1.55-3.27-2.09
		c-0.84-0.42-1.63-0.84-2.37-1.25c-0.74-0.41-1.41-0.78-2.02-1.11c-0.33,1.17-0.74,2.79-1.25,4.85c-0.5,2.06-1.07,4.57-1.7,7.52
		c-0.7,3.33-1.23,6.01-1.58,8.05s-0.53,3.41-0.53,4.11c-0.14,0.59-0.26,1.17-0.35,1.76l-1.41,6.93c-0.82,1.59-1.52,2.78-2.11,3.55
		c-0.59,0.77-1.04,1.16-1.37,1.16c-0.17,0-0.32-0.13-0.46-0.4c-0.14-0.27-0.28-0.7-0.43-1.28l0.43-2c-0.07-0.14-0.14-0.34-0.21-0.6
		c0.14-1.52,0.27-3.07,0.39-4.62c0.12-1.56,0.25-3.11,0.39-4.66c0.12-1.73,0.29-3.36,0.53-4.89c0.23-1.52,0.49-2.93,0.77-4.22
		l-0.42-1.79c0.16-0.44,0.31-1,0.44-1.65c0.13-0.66,0.24-1.41,0.33-2.25c0.09-1.08,0.18-1.95,0.25-2.62s0.15-1.13,0.25-1.39
		c0.09-0.31,0.19-0.69,0.3-1.16s0.23-1.03,0.37-1.69c0.07-0.26,0.48-0.76,1.23-1.49c0.75-0.74,1.23-1.29,1.44-1.67
		c0.49-0.07,0.86-0.17,1.09-0.3c0.23-0.13,0.35-0.3,0.35-0.51c0-0.16-0.14-0.3-0.4-0.42c-0.27-0.12-0.67-0.21-1.21-0.28
		c-0.26,0-0.56-0.03-0.9-0.09c-0.34-0.06-0.69-0.16-1.04-0.3l-2.88-1.41c-0.61-0.28-1.08-0.56-1.4-0.84
		c-0.32-0.28-0.48-0.57-0.48-0.88c0.14-0.47,0.26-0.94,0.36-1.41c-0.17-0.47-0.3-0.86-0.41-1.16c-0.11-0.31-0.16-0.54-0.16-0.7
		c0-0.21,0.05-0.38,0.16-0.49s0.25-0.18,0.44-0.18c0.66,0.12,1.23,0.22,1.72,0.32c0.23-0.07,0.47-0.15,0.7-0.23
		c0.23-0.08,0.47-0.17,0.7-0.26c0.56,0,1.07,0.04,1.51,0.12c0.44,0.08,0.79,0.17,1.02,0.26c0.33,0.16,0.67,0.34,1.02,0.53
		s0.69,0.35,1.02,0.49c0.28-0.05,0.66-0.11,1.12-0.18c0.14,0,0.27,0.02,0.39,0.07c0.28,0.19,0.62,0.36,1.02,0.51
		c0.4,0.15,0.86,0.29,1.37,0.4c0.56,0.09,1.04,0.19,1.44,0.3c0.4,0.11,0.71,0.22,0.95,0.33c2.48,1.29,4.66,2.5,6.52,3.64
		c1.86,1.14,3.4,2.25,4.62,3.32c1.92,1.67,3.34,3.45,4.25,5.35s1.37,3.88,1.37,5.95c0,3.28-0.97,6.77-2.92,10.45
		c-1.95,3.68-4.84,7.55-8.68,11.61c0.33-0.14,0.76-0.29,1.3-0.46c0.54-0.17,1.16-0.36,1.86-0.6c1.48-0.33,3-0.68,4.57-1.06
		c0.98-0.28,1.82-0.59,2.5-0.92C262.8,357.8,263.35,357.42,263.78,356.97z"/>
	<path d="M263.56,357c0.16-0.16,0.33-0.38,0.51-0.65s0.38-0.57,0.62-0.9l2.71-1.86c0.33-0.4,0.83-0.91,1.51-1.53
		c0.68-0.62,1.52-1.38,2.53-2.27c0.12-0.26,0.31-0.56,0.58-0.9c0.27-0.34,0.59-0.67,0.97-1c0.33-0.3,0.66-0.59,0.98-0.86
		c0.33-0.27,0.63-0.53,0.91-0.79c0.35-0.35,0.69-0.7,1-1.05s0.64-0.69,0.97-1.02c0.37-0.33,0.76-0.59,1.16-0.77
		c0.4-0.19,0.83-0.28,1.3-0.28c0.52,0,0.91,0.06,1.18,0.19c0.27,0.13,0.42,0.31,0.44,0.54c-0.23,0.54-0.48,1.08-0.74,1.62l0.21,0.32
		c1.03-0.4,1.84-0.69,2.43-0.88s0.96-0.28,1.12-0.28c1.71,0,2.99,0.52,3.85,1.56s1.28,2.62,1.28,4.73c0,0.4-0.05,0.87-0.14,1.41
		s-0.25,1.12-0.46,1.76c-0.23,0.7-0.49,1.29-0.76,1.76s-0.52,0.81-0.76,1.02c0.09,0.3,0.2,0.52,0.32,0.65s0.27,0.19,0.46,0.19
		s0.38-0.06,0.58-0.18s0.44-0.29,0.72-0.53c0.23,0.52,0.46,1.05,0.69,1.6s0.45,1.1,0.69,1.63c-0.42,0.38-0.83,0.74-1.23,1.09
		s-0.82,0.69-1.27,1.02c-0.54,0.45-1.05,0.77-1.53,0.97s-0.96,0.3-1.42,0.3c-0.54,0-0.98-0.13-1.34-0.39s-0.63-0.62-0.84-1.09
		c-0.59,0.77-1.29,1.48-2.13,2.13c-0.83,0.64-1.75,1.18-2.76,1.6c-0.59,0.28-1.12,0.5-1.6,0.65c-0.48,0.15-0.92,0.23-1.32,0.23
		c-0.12,0-0.35,0.05-0.69,0.14c-0.34,0.09-0.62,0.14-0.83,0.14c-1.34,0-2.54-0.56-3.62-1.69c-1.08-1.12-1.62-2.38-1.62-3.76
		c0-0.56,0.13-1.31,0.39-2.23c0.26-0.93,0.39-1.47,0.39-1.63s-0.05-0.3-0.16-0.4s-0.25-0.16-0.44-0.16c-0.12,0-0.4,0.18-0.84,0.53
		c-0.45,0.35-1.08,0.86-1.9,1.51c-0.07,0.09-0.15,0.23-0.25,0.42c-0.09,0.19-0.25,0.4-0.46,0.63c-0.19-0.54-0.4-1.08-0.63-1.63
		C264.1,358.05,263.85,357.52,263.56,357z M280.48,350.57c-0.12,0.02-0.29,0.15-0.51,0.37c-0.22,0.22-0.44,0.5-0.65,0.83
		c-0.33,0.54-0.7,1.12-1.12,1.76c-0.26,0.28-0.53,0.5-0.83,0.65c-0.29,0.15-0.63,0.26-1,0.33c-0.23,0.02-0.48,0.25-0.74,0.69
		c-0.26,0.43-0.52,1.06-0.77,1.88c-0.26,0.73-0.45,1.35-0.56,1.86c-0.12,0.52-0.18,0.95-0.18,1.3c0,0.66,0.16,1.15,0.49,1.48
		c0.33,0.33,0.83,0.49,1.51,0.49c1.08,0,2.07-0.3,2.97-0.9c0.9-0.6,1.75-1.49,2.55-2.69c0.38-0.45,0.73-0.87,1.05-1.27
		c0.19-0.14,0.34-0.37,0.46-0.69s0.23-0.71,0.35-1.18l0.63-2c-0.21-0.7-0.41-1.26-0.6-1.67s-0.38-0.66-0.56-0.76
		c-0.12-0.07-0.38-0.15-0.77-0.23S281.22,350.66,280.48,350.57z"/>
	<path d="M288.98,357c0.09-0.07,0.19-0.17,0.28-0.3c0.09-0.13,0.2-0.33,0.32-0.62c0.14-0.23,0.34-0.49,0.6-0.76s0.56-0.57,0.91-0.9
		c0.66-0.54,1.25-1.21,1.78-2.02s1.05-1.74,1.56-2.79c0.68-1.48,1.3-2.73,1.86-3.76s1.08-1.82,1.55-2.36
		c0.14-0.54,0.42-1.39,0.84-2.57s0.98-2.7,1.69-4.57c0.68-1.78,1.25-3.23,1.72-4.34s0.82-1.88,1.05-2.3
		c0.09-0.16,0.22-0.38,0.37-0.63s0.28-0.57,0.37-0.95c0.33-1.1,0.71-2.13,1.16-3.08s0.9-1.85,1.37-2.69
		c0.12-0.21,0.26-0.38,0.44-0.49s0.36-0.18,0.54-0.18c0.94,0,1.63,0.36,2.09,1.09s0.69,1.79,0.69,3.2c0,1.57-0.5,3.74-1.51,6.52
		s-2.55,6.15-4.64,10.11c-0.42,0.89-0.88,1.98-1.37,3.27s-0.98,2.77-1.48,4.43c-0.4,1.29-0.79,2.6-1.16,3.94s-0.76,2.65-1.16,3.94
		c-0.38,1.24-0.66,2.22-0.84,2.94s-0.28,1.19-0.28,1.42c0,0.16,0.03,0.28,0.09,0.35s0.15,0.11,0.26,0.11c0.23,0,0.44-0.07,0.62-0.21
		s0.31-0.34,0.4-0.6c0.47-0.68,0.93-1.45,1.39-2.3s0.92-1.8,1.39-2.83l0.11-1.02c0.16-1.55,0.52-2.62,1.05-3.23s1.55-1.09,3.02-1.44
		c0.19-0.07,0.66-0.7,1.42-1.9s1.78-2.96,3.04-5.31c0.7-1.24,1.29-2.17,1.76-2.79s0.82-0.93,1.05-0.93c0.54,0,0.93,0.18,1.16,0.53
		s0.35,0.88,0.35,1.58c0,1.8-1.01,4.08-3.02,6.82s-3.02,4.55-3.02,5.41c0,0.61,0.54,1.54,1.62,2.79s1.97,1.88,2.67,1.88
		c0.23,0,0.5-0.08,0.79-0.23s0.64-0.39,1.04-0.72c0.3-0.23,0.6-0.49,0.9-0.76s0.62-0.52,0.97-0.76l1.41,3.23
		c-0.61,0.54-1.19,1.08-1.74,1.62s-1.13,1.07-1.74,1.58c-0.68,0.66-1.36,1.14-2.04,1.46s-1.36,0.47-2.04,0.47
		c-0.7,0-1.89-0.72-3.57-2.16s-2.57-2.16-2.69-2.16c-0.87,0.8-1.63,1.59-2.29,2.39c-0.42,0.52-0.84,1.01-1.25,1.49
		s-0.83,0.98-1.25,1.49c-0.12,0.16-0.3,0.36-0.56,0.6s-0.55,0.5-0.88,0.81c-0.33,0.47-0.7,0.92-1.11,1.35s-0.92,0.65-1.53,0.65
		c-0.94,0-1.64-0.27-2.11-0.81s-0.7-1.36-0.7-2.46c0-1.12,0.1-2.32,0.3-3.59s0.51-2.59,0.93-3.97c0.16-0.66,0.29-1.24,0.39-1.74
		s0.14-0.94,0.14-1.32l-0.25-0.35c-0.3,0.38-0.69,0.82-1.16,1.34s-1.02,1.15-1.65,1.9c-0.09,0.07-0.19,0.19-0.3,0.37
		s-0.35,0.52-0.72,1.04c-0.12-0.3-0.26-0.67-0.44-1.09s-0.36-0.91-0.54-1.48c-0.05-0.14-0.11-0.27-0.18-0.39
		S289.08,357.07,288.98,357z"/>
	<path d="M317.85,355.46l3.2-2.11c0.12-0.12,0.26-0.28,0.42-0.47s0.35-0.49,0.56-0.86c0.16-0.3,0.38-0.56,0.65-0.77
		s0.58-0.4,0.93-0.56c0.19-0.23,0.46-0.53,0.81-0.88s0.8-0.76,1.34-1.23c0.26-0.14,0.59-0.35,0.98-0.62s0.83-0.63,1.3-1.07
		c2.13-2.02,4-3.53,5.61-4.54s2.96-1.51,4.06-1.51c0.61,0,1.06,0.13,1.35,0.39s0.44,0.62,0.44,1.09c0,0.49-0.09,0.93-0.26,1.3
		s-0.45,0.69-0.83,0.95c-0.59,0.42-1.22,0.89-1.9,1.41c-0.38,0.49-0.83,1.01-1.37,1.56s-1.17,1.1-1.9,1.63
		c-0.23,0.3-0.43,0.57-0.6,0.81c-0.12,0.12-0.34,0.33-0.67,0.63s-0.76,0.66-1.3,1.05c-0.23,0.52-0.74,1.18-1.53,2
		s-1.83,1.8-3.15,2.95c-0.16,0.16-0.46,0.54-0.88,1.12s-0.97,1.36-1.65,2.32l0.25,0.32c0.52-0.16,1.05-0.45,1.62-0.84
		s1.18-0.93,1.86-1.58c0.8-0.73,1.45-1.32,1.95-1.78s0.86-0.76,1.07-0.9c0.16-0.09,0.33-0.19,0.49-0.28s0.35-0.21,0.56-0.35
		c1.08-1.29,2.09-2.24,3.02-2.87s1.8-0.93,2.6-0.93c0.49,0,0.87,0.19,1.12,0.58s0.41,0.97,0.46,1.74c-0.05,1.17-0.07,2.3-0.07,3.38
		c-0.02,0.75,0.18,1.42,0.62,2.02s1,0.9,1.71,0.9c0.21,0,0.42-0.06,0.62-0.18s0.4-0.27,0.62-0.46c0.16-0.21,0.32-0.41,0.47-0.6
		s0.31-0.38,0.47-0.56c0.09-0.05,0.23-0.13,0.4-0.25s0.35-0.26,0.51-0.42c0.33,0.7,0.6,1.32,0.83,1.85s0.39,0.99,0.51,1.39
		c-0.54,0.49-1.07,1-1.6,1.53s-1.08,1.03-1.67,1.49c-0.7,0.54-1.38,0.94-2.04,1.21s-1.31,0.4-1.97,0.4c-1.52,0-2.7-0.43-3.52-1.3
		s-1.3-2.18-1.44-3.94c0-0.21-0.03-0.43-0.09-0.65s-0.18-0.45-0.37-0.69c-0.12,0.12-0.25,0.24-0.39,0.37s-0.3,0.3-0.49,0.51
		c-0.3,0.23-0.69,0.53-1.14,0.88s-0.99,0.77-1.6,1.27c-0.82,0.84-1.51,1.54-2.07,2.07s-0.96,0.93-1.2,1.16
		c-0.47,0.4-1.01,0.8-1.63,1.2s-1.32,0.81-2.09,1.23c-0.49,0.26-0.91,0.46-1.27,0.62s-0.61,0.23-0.77,0.23
		c-1.12,0-1.96-0.28-2.5-0.83c-0.54-0.55-0.81-1.4-0.81-2.55c0-0.63,0.14-1.24,0.4-1.81c0.27-0.57,0.67-1.13,1.21-1.67
		c0.05-0.3,0.07-0.55,0.07-0.74c0-0.12-0.03-0.24-0.09-0.37s-0.13-0.28-0.23-0.44c-0.14-0.33-0.3-0.7-0.47-1.11
		s-0.37-0.85-0.58-1.32c0.09-0.09,0.23-0.28,0.4-0.54S317.61,355.85,317.85,355.46z"/>
	<path d="M343.76,357c0.09-0.16,0.22-0.35,0.37-0.54c0.15-0.2,0.33-0.44,0.54-0.72c0.23-0.19,0.54-0.46,0.91-0.81
		s0.8-0.76,1.27-1.23c0.42-0.47,0.94-1.05,1.55-1.74s1.35-1.53,2.21-2.51c0.38-0.4,0.84-0.91,1.41-1.53s1.23-1.37,2-2.23
		c0.66-0.77,1.36-1.35,2.11-1.72s1.55-0.56,2.39-0.56s1.46,0.26,1.86,0.79s0.6,1.29,0.6,2.3c0,0.54-0.2,1.57-0.6,3.09
		s-1.02,3.54-1.86,6.05c-0.21,0.47-0.41,0.91-0.6,1.34c-0.14,0.3-0.23,0.57-0.28,0.81s-0.07,0.41-0.07,0.53
		c0,0.14,0.08,0.32,0.25,0.53c0.12-0.07,0.23-0.16,0.33-0.28s0.23-0.26,0.37-0.42c0.19-0.35,0.47-0.72,0.86-1.11
		s0.85-0.81,1.39-1.28c0.21-0.4,0.49-0.79,0.83-1.18s0.72-0.74,1.14-1.07c0.09-0.09,0.22-0.25,0.37-0.46s0.33-0.43,0.54-0.67
		c0.3-0.3,0.67-0.62,1.09-0.95s0.91-0.67,1.48-1.02c0.63-0.33,1.2-0.59,1.71-0.77s0.94-0.28,1.32-0.28c0.73,0,1.37,0.18,1.93,0.53
		s1.04,0.9,1.44,1.65c0.47,1.45,0.91,2.8,1.34,4.04c0.26,0.73,0.54,1.27,0.86,1.62s0.67,0.53,1.07,0.53c0.3,0,0.58-0.06,0.83-0.18
		s0.47-0.29,0.69-0.53l1.41,3.23c-0.4,0.33-0.81,0.67-1.23,1.02s-0.83,0.69-1.23,1.02c-0.54,0.49-1.04,0.84-1.51,1.04
		s-0.94,0.3-1.41,0.3c-0.54,0-1.05-0.12-1.55-0.35s-0.91-0.59-1.27-1.05c-0.19-0.19-0.42-0.53-0.7-1.04s-0.61-1.13-0.98-1.88
		c-0.3-0.3-0.65-0.71-1.04-1.21s-0.84-1.1-1.35-1.78l-0.32-0.11c-0.44,0.14-0.88,0.35-1.32,0.63c-0.43,0.28-0.9,0.64-1.39,1.09
		c-1.05,0.94-1.82,1.52-2.28,1.76s-0.78,0.5-0.95,0.81c-0.33,0.56-0.89,1.29-1.69,2.18s-1.79,1.95-2.98,3.16
		c-0.3,0.3-0.61,0.6-0.91,0.9c-0.3,0.29-0.61,0.58-0.91,0.86c-0.3,0.26-0.65,0.44-1.04,0.54c-0.39,0.11-0.81,0.16-1.28,0.16
		c-0.94,0-1.45-0.32-1.53-0.97s-0.16-1.29-0.23-1.95c0.35-0.98,0.75-2.21,1.2-3.69c0.44-1.48,0.96-3.2,1.54-5.17
		c0-0.12,0.04-0.28,0.12-0.47c0.08-0.2,0.18-0.46,0.3-0.79c0.12-0.3,0.2-0.57,0.24-0.79s0.07-0.42,0.07-0.58s-0.06-0.29-0.18-0.39
		s-0.3-0.14-0.56-0.14c-0.23,0-0.54,0.14-0.93,0.42s-0.85,0.73-1.39,1.34c-0.66,0.7-1.18,1.25-1.58,1.65s-0.67,0.63-0.81,0.7
		c-0.23,0.16-0.51,0.4-0.83,0.7s-0.67,0.64-1.07,1.02c-0.05,0.09-0.12,0.23-0.21,0.42s-0.25,0.4-0.46,0.63
		c-0.09-0.35-0.26-0.79-0.49-1.3C344.44,358.42,344.13,357.78,343.76,357z"/>
</g>
<g>
</g>
<g>
</g>
<g>
</g>
<g>
</g>
<g>
</g>
</svg>
